# xmcd
#
# Track frame offsets:
#	150
#	13765
#	28720
#	37871
#	54279
#	62673
#	80523
#	95287
#	111772
#	127065
#	144748
#	160664
#	173864
#	195790
#	205351
#	221329
#
# Disc length: 3266 seconds
#
# Revision: 0
# Processed by: cddbd v1.5.2PL0 Copyright (c) Steve Scherf et al.
# Submitted via: audiograbber 1.83.01
#
DISCID=d10cc010
DTITLE=David Daniels - If This All Goes South: The Dry Creek Sessions, Volume 1
DYEAR=2019
DGENRE=Country
TTITLE0=If This All Goes South
TTITLE1=Cracked Martin
TTITLE2=Dusty Boots and Broken Hearts
TTITLE3=A Dylan Tune
TTITLE4=Johnny Bye Bye
TTITLE5=Train to Birmingham
TTITLE6=Might Be a Train
TTITLE7=Melancholy in Memphis
TTITLE8=Gypsy River Queen
TTITLE9=One Great Three-Minute Song
TTITLE10=Live Out Your Dreams
TTITLE11=Don't Take It Away
TTITLE12=She Would Never be Mine
TTITLE13=Sapphire Blue
TTITLE14=Old Dogs, Children and Watermelon Wine
TTITLE15=When I Look Back
EXTD=
EXTT0=
EXTT1=
EXTT2=
EXTT3=
EXTT4=
EXTT5=
EXTT6=
EXTT7=
EXTT8=
EXTT9=
EXTT10=
EXTT11=
EXTT12=
EXTT13=
EXTT14=
EXTT15=
PLAYORDER=
